<svg width="362" height="166" viewBox="0 0 362 166" fill="none" xmlns="http://www.w3.org/2000/svg">
<g clip-path="url(#clip0_991_2349)">
<path d="M10.9024 39.7637C10.9024 43.5107 10.3668 45.0365 15.9847 45.0365C31.4338 45.0365 33.7071 38.4978 34.5759 38.4978C35.0461 38.4978 35.1115 39.1308 35.1115 39.2608C35.1115 41.5496 33.3738 43.7706 31.767 45.4208C29.6246 47.7097 28.1547 47.5797 25.2148 47.5797C20.1326 47.5797 15.0444 47.1954 9.96216 47.3254C7.28416 47.3875 4.47523 47.5797 1.80319 47.5797C1.20212 47.5797 0.797449 47.4554 0.797449 46.9467C0.934324 46.1838 1.60085 46.3138 3.7373 45.2965C5.47502 44.5336 5.6119 42.7534 5.6119 39.7694V7.55614C5.61785 4.25569 0 4.70216 0 3.43058C0 2.7298 0.470138 2.60547 1.339 2.60547C2.74346 2.60547 4.8204 2.85978 8.09351 2.85978C11.9082 2.85978 13.509 2.60547 14.5148 2.60547C15.3836 2.60547 15.7823 2.73545 15.7823 3.49275C15.7823 4.95647 10.8965 3.36841 10.8965 8.88988V39.7581L10.9024 39.7637Z" fill="#E35205"/>
<path d="M41.1992 31.2528C41.1992 41.7306 47.8882 44.8445 51.9707 44.8445C57.7194 44.8445 59.9273 41.5384 61.4032 41.5384C61.671 41.5384 61.671 41.7927 61.671 41.9849C61.671 43.443 55.8508 48.0206 49.8342 48.0206C39.8006 48.0206 36.3252 39.1931 36.3252 34.9997C36.3252 26.8729 41.0742 20.0742 49.4355 20.0742C57.7968 20.0742 61.2722 27.6302 61.2722 30.1734C61.2722 31.3206 60.5343 31.2528 58.9989 31.2528H41.2051H41.1992ZM54.3749 29.5347C55.3092 29.5347 55.7139 29.2183 55.7139 28.2632C55.7139 24.7028 51.9707 21.5266 48.2929 21.5266C44.145 21.5266 41.2051 26.0365 41.2051 29.5291H54.3809L54.3749 29.5347Z" fill="#E35205"/>
<path d="M94.176 44.3304C93.7773 45.2234 92.9739 48.0152 91.7658 48.0152C90.4983 48.0152 90.2959 46.3649 89.6949 44.7091L84.7435 31.626L78.2568 44.839C77.7212 45.9185 77.1856 48.0152 75.7812 48.0152C74.7754 48.0152 74.3112 46.0428 73.24 43.1888L67.0866 26.4831C64.8133 20.3231 62.7363 22.7362 62.7363 21.4025C62.7363 20.956 63.141 20.7695 63.5397 20.7695C65.1465 20.7695 66.1523 21.0238 67.7531 21.0238C69.354 21.0238 71.0322 20.7695 73.3055 20.7695C73.7756 20.7695 73.9066 21.2103 73.9066 21.5946C73.9066 22.4198 71.6332 22.3576 71.6332 24.07C71.6332 25.3416 72.032 26.4831 72.7699 28.5177L77.5843 41.8551L83.9401 29.2128L81.7323 24.0078C81.0657 22.2898 78.2568 22.4819 78.2568 21.6568C78.2568 21.0238 78.9948 20.7695 79.5244 20.7695C80.9289 20.7695 82.3988 21.0238 83.8092 21.0238C85.2196 21.0238 86.6836 20.7695 88.0881 20.7695C88.6891 20.7695 89.7603 20.8317 89.7603 21.6568C89.7603 22.4819 87.3501 22.4819 87.3501 23.9456C87.3501 24.9007 87.8203 26.1667 88.6891 28.6476L93.3726 41.8607L99.2583 27.9525C99.7284 26.8109 99.7939 25.7937 99.7939 24.9064C99.7939 22.4311 95.9138 22.8097 95.9138 21.6003C95.9138 20.8995 96.985 20.7752 97.3182 20.7752C98.5858 20.8995 99.9248 21.0295 101.198 21.0295C102.335 21.0295 103.472 20.7752 104.608 20.7752C105.144 20.7752 105.68 20.9617 105.68 21.5325C105.68 22.4876 103.942 22.2333 103.007 24.3921L94.176 44.3361V44.3304Z" fill="#E35205"/>
<path d="M111.762 26.9293C111.762 23.1202 108.084 24.7705 108.084 23.4367C108.084 23.0581 108.352 22.8038 108.685 22.7416C112.964 21.5943 114.303 19.5655 115.844 19.5655C116.249 19.5655 116.648 19.9441 116.648 20.5771V43.3807C116.648 46.619 121.932 45.2231 121.932 46.8733C121.932 47.3819 121.533 47.5741 120.665 47.5741C119.26 47.5741 117.189 47.3197 114.446 47.3197C112.303 47.3197 110.566 47.5741 109.834 47.5741C109.298 47.5741 108.899 47.5119 108.828 46.8733C108.828 45.2852 111.768 47.6984 111.768 41.9226V26.9293H111.762ZM116.981 10.3536C116.981 11.1166 115.041 13.6541 114.172 13.6541C113.369 13.6541 111.363 11.0544 111.363 10.3536C111.363 9.65284 113.369 6.98535 114.172 6.98535C115.041 6.98535 116.981 9.59067 116.981 10.3536Z" fill="#E35205"/>
<path d="M124.069 27.6922C124.069 22.6115 128.217 20.0684 133.097 20.0684C134.233 20.0684 138.846 20.577 139.649 21.5264C140.054 22.0351 139.982 24.1939 139.982 24.6404C139.982 26.3528 140.25 27.1157 139.244 27.1157C138.578 27.1157 137.971 21.5886 131.889 21.5886C129.282 21.5886 127.205 23.0523 127.205 25.652C127.205 27.7487 128.943 29.0824 135.965 31.7499C139.78 33.2758 141.518 35.2425 141.518 39.3059C141.518 44.0701 137.441 48.0091 132.49 48.0091C127.806 48.0091 126.604 46.1667 124.997 46.1667C123.527 46.1667 123.527 46.1046 123.527 41.0861C123.527 40.0067 123.325 37.9722 124.331 37.9722C125.807 37.9722 125.069 46.3532 132.293 46.3532C135.572 46.3532 138.244 44.4487 138.244 41.1426C138.244 37.8365 134.835 36.7627 132.157 35.5533C128.544 33.8409 124.063 32.1851 124.063 27.6752L124.069 27.6922Z" fill="#E35205"/>
<path d="M184.562 11.5576C184.562 11.8741 184.157 12.0662 183.89 12.0662C183.283 12.0662 183.08 11.3089 182.878 10.9246C181.265 7.61851 177.778 4.2559 173.695 4.2559C170.619 4.2559 168.143 6.35259 168.143 9.40437C168.143 13.6599 178.046 23.6969 192.519 36.4013C194.185 34.6211 194.459 32.3323 194.459 29.6648C194.459 22.2332 188.169 24.7707 188.169 22.7418C188.169 22.041 189.174 22.1653 189.71 22.1653C192.186 22.1653 194.53 22.4197 195.53 22.4197C196.399 22.4197 197.536 22.1653 199.809 22.1653C200.41 22.1653 200.743 22.2953 200.743 22.9283C200.743 23.9455 198.202 23.2448 197.875 26.0422C197.405 30.0435 196.869 34.1125 194.727 37.7294C197.268 39.634 203.552 45.7997 206.563 45.7997C207.902 45.7997 208.569 45.4832 209.039 45.4832C209.509 45.4832 209.575 45.8675 209.575 45.9918C209.575 47.0713 206.23 48.0264 204.022 48.0264C199.005 48.0264 195.328 44.4038 191.65 41.612C186.835 45.8675 181.741 48.0264 175.171 48.0264C165.34 48.0264 156.711 41.8606 156.711 31.9593C156.711 25.1606 160.258 19.95 167.411 18.4919C165.673 16.463 164.334 13.9199 164.334 11.2524C164.334 5.47096 169.75 2.61133 175.171 2.61133C179.45 2.61133 182.009 4.32937 182.342 4.32937C182.676 4.32937 182.943 3.75857 183.55 3.75857C184.497 3.75857 184.354 4.96233 184.354 5.53878L184.556 11.5745L184.562 11.5576ZM189.442 40.2048C175.106 28.5797 170.018 20.0687 167.613 20.0687C163.4 20.0687 160.323 25.0193 160.323 28.7097C160.323 37.1586 168.816 44.2738 177.445 44.2738C181.741 44.2738 186.163 42.8722 189.442 40.2048Z" fill="#E35205"/>
<path d="M243.085 2.0293C255.66 2.0293 259.135 6.92345 261.075 6.92345C261.611 6.92345 262.01 6.29049 262.682 6.29049C263.42 6.29049 263.42 7.3021 263.616 11.4333C263.753 14.8016 264.354 16.8983 263.212 16.8983C262.414 16.8983 261.944 15.248 261.676 14.8016C257.528 8.00288 252.785 3.87732 244.156 3.87732C231.111 3.87732 224.827 12.1341 224.827 23.9513C224.827 35.0055 231.51 46.0541 244.353 46.0541C254.85 46.0541 261.408 39.7019 262.414 36.7801C262.545 36.3392 262.95 35.9549 263.349 35.9549C263.682 35.9549 264.015 36.3392 263.95 36.6557L262.414 43.0079C262.349 43.2623 257.6 48.0264 242.549 48.0264C228.838 48.0264 219.007 39.0689 219.007 25.9236C219.007 12.7784 228.969 2.0293 243.085 2.0293Z" fill="#E35205"/>
<path d="M275.59 42.4254C275.59 46.8109 281.142 44.9686 281.142 46.681C281.142 47.4439 280.606 47.5682 279.601 47.5682C278.666 47.5682 276.589 47.3139 273.447 47.3139C270.305 47.3139 268.901 47.5682 268.234 47.5682C267.698 47.5682 267.431 47.3139 267.431 46.7431C267.431 45.788 270.71 45.9802 270.71 43.2505V7.36384C270.71 3.55476 266.163 5.20498 266.163 3.87124C266.163 3.48694 266.431 3.23828 266.764 3.17046C271.918 2.02887 273.251 0 274.792 0C275.191 0 275.59 0.378647 275.59 1.01726V42.4311V42.4254Z" fill="#E35205"/>
<path d="M300.001 27.2455C300.001 23.9451 297.264 21.7184 293.11 21.7184C289.902 21.7184 287.295 22.0349 287.295 25.5275C287.295 26.4826 287.694 27.432 287.694 28.1328C287.694 28.8336 287.498 29.3422 286.224 29.3422C285.088 29.3422 283.082 28.3871 283.082 27.2455C283.153 24.3237 286.897 19.8817 294.318 20.0682C298.466 20.0682 304.887 21.2098 304.887 26.6069V39.7578C304.887 41.9167 304.286 45.6636 307.761 45.6636C308.029 45.6636 308.63 45.5393 308.898 45.5393C309.231 45.5393 309.767 45.5393 309.767 45.9801C309.767 47.3138 306.827 47.5681 305.887 47.5681C303.28 47.5681 301.542 46.4265 300.668 44.3299C297.859 46.6187 294.181 48.0146 290.438 48.0146C286.087 48.0146 283.213 46.4887 283.213 41.9789C283.213 38.6106 284.35 34.6094 300.001 32.134V27.2399V27.2455ZM300.001 33.6599C295.722 34.5472 287.563 35.5645 287.563 41.1537C287.563 44.7763 289.503 46.1722 293.044 46.1722C295.454 46.1722 300.001 44.392 300.001 41.0294V33.6599Z" fill="#E35205"/>
<path d="M319.128 41.9847C319.128 47.8905 325.085 44.8444 325.085 46.8732C325.085 47.444 324.752 47.574 324.014 47.574C323.08 47.574 321.473 47.3197 317.724 47.3197C313.242 47.3197 312.04 47.574 311.57 47.574C311.035 47.574 310.832 47.3875 310.832 47.0032C310.832 45.6695 314.242 45.9238 314.242 43.3185V26.9293C314.242 23.1202 309.428 24.7704 309.428 23.4367C309.428 23.058 309.963 22.8037 310.297 22.7415C315.45 21.5943 316.783 19.5654 318.325 19.5654C318.729 19.5654 319.128 19.9441 319.128 20.577V25.3412H319.265C320.669 23.4988 323.08 20.0684 325.888 20.0684C327.293 20.0684 330.304 21.7186 330.304 22.928C330.304 23.8831 328.697 25.7877 327.894 25.7877C326.62 25.7877 325.888 24.3296 323.478 24.3296C320.741 24.3296 319.128 27.2514 319.128 28.0765V41.9847Z" fill="#E35205"/>
<path d="M339.13 36.2653V42.4254C339.13 46.8109 344.682 44.9686 344.682 46.681C344.682 47.4439 344.147 47.5682 343.147 47.5682C342.207 47.5682 340.868 47.3139 336.994 47.3139C333.917 47.3139 332.578 47.5682 331.78 47.5682C331.245 47.5682 330.977 47.2518 330.977 46.7431C330.977 45.788 334.256 45.9802 334.256 43.2505V7.36384C334.256 3.55476 329.239 5.20498 329.239 3.87124C329.239 3.48694 329.507 3.23828 329.84 3.17046C335.458 2.02887 336.797 0 338.333 0C338.737 0 339.136 0.378647 339.136 1.01726V33.7957L347.628 26.4883C349.104 25.2846 350.306 24.4538 350.306 23.5665C350.306 22.2328 347.229 22.6793 347.229 21.5998C347.229 21.2834 347.366 20.8991 347.831 20.8991C348.699 20.8991 350.175 21.1534 352.377 21.1534C354.115 21.1534 355.525 20.8991 357.263 20.8991C358.465 20.8991 359.602 20.7126 359.602 21.5998C359.602 22.6793 357.192 21.9163 354.186 23.8209C350.639 26.0419 347.831 29.1558 344.551 31.6368C346.831 34.7508 349.366 37.6669 355.192 43.8948C357.864 46.7544 362.012 45.4829 362.012 46.8166C362.012 47.3252 361.875 47.5739 361.345 47.5739C360.542 47.5739 359.405 47.3196 356.531 47.3196C354.793 47.3196 353.252 47.5739 352.449 47.5739C347.836 42.1768 345.492 40.5887 341.147 34.553L339.142 36.271L339.13 36.2653Z" fill="#E35205"/>
<path d="M183.015 165.797C195.072 162.666 207.766 153.646 214.336 139.331C209.676 146.893 200.803 152.301 188.573 146.554C176.397 140.834 169.351 145.276 167.221 147.226C169.601 153.284 174.13 159.428 183.015 165.797Z" fill="#E35205"/>
<path d="M164.709 134.504C166.399 122.908 177.682 118.042 192.12 124.603C205.843 130.837 217.525 122.529 218.888 117.397C218.882 117.149 218.882 116.894 218.876 116.646V65.7432H164.53V124.501C164.572 127.864 164.53 131.198 164.709 134.504Z" fill="#E35205"/>
<path d="M164.102 146.129C161.698 138.726 162.049 131.52 161.948 124.512V65.7373H142.416V116.64C141.88 144.682 161.353 161.761 179.105 166C170.571 159.354 166.232 152.702 164.102 146.129Z" fill="#E35205"/>
<path d="M189.811 133.346C178.254 129.407 169.785 130.837 165.024 138.212C165.316 140.619 165.786 143.015 166.56 145.406C166.691 145.796 166.828 146.192 166.97 146.587C169.309 139.856 175.963 132.832 190.454 137.991C199.023 141.015 213.954 142.015 217.549 129.814C218.275 126.643 218.721 123.281 218.84 119.731C215.347 133.837 202.022 137.517 189.799 133.351L189.811 133.346Z" fill="#E35205"/>
</g>
<defs>
<clipPath id="clip0_991_2349">
<rect width="362" height="166" fill="#E35205"/>
</clipPath>
</defs>
</svg>
